<?xml version="1.0" standalone="no"?>
<!DOCTYPE svg PUBLIC "-//W3C//DTD SVG 20010904//EN"
 "http://www.w3.org/TR/2001/REC-SVG-20010904/DTD/svg10.dtd">
<svg version="1.0" xmlns="http://www.w3.org/2000/svg"
 width="263.000000pt" height="263.000000pt" viewBox="0 0 263.000000 263.000000"
 preserveAspectRatio="xMidYMid meet">
<metadata>
Created by potrace 1.11, written by Peter Selinger 2001-2013
</metadata>
<g transform="translate(0.000000,263.000000) scale(0.100000,-0.100000)"
fill="#000000" stroke="none">
<path d="M1580 2608 c0 -15 11 -57 25 -93 22 -59 23 -66 7 -61 -150 45 -450
41 -627 -10 -5 -2 -19 -5 -30 -8 -39 -9 -161 -58 -210 -84 -167 -89 -323 -217
-410 -337 -11 -15 -35 -46 -52 -70 -35 -47 -136 -235 -127 -235 4 0 2 -6 -4
-12 -12 -15 -48 -133 -63 -209 -31 -156 -31 -354 2 -495 6 -27 12 -56 14 -65
10 -50 80 -233 98 -257 5 -7 19 -30 31 -52 63 -119 199 -271 321 -361 44 -33
85 -63 90 -67 22 -17 114 -65 180 -94 79 -35 190 -68 290 -86 50 -9 350 -9
390 0 17 3 48 9 69 13 86 15 306 96 314 117 2 4 9 8 16 8 6 0 35 16 65 35 29
19 57 35 62 35 5 0 9 4 9 8 0 4 14 16 31 26 49 29 202 186 258 267 49 69 125
204 119 212 -2 2 3 11 10 19 13 16 74 188 67 188 -3 0 -1 10 4 23 33 86 37
432 6 537 -2 8 -6 26 -9 40 -14 82 -123 338 -148 348 -4 2 -8 8 -8 13 0 10
-65 102 -110 154 -44 52 -154 156 -182 173 -16 9 -28 20 -28 24 0 4 -7 8 -15
8 -8 0 -15 3 -15 8 0 12 -153 95 -243 131 -52 21 -60 29 -88 82 -18 33 -36 59
-41 59 -5 0 -7 3 -5 8 3 4 -10 25 -29 47 -34 40 -34 40 -34 13z"/>
</g>
</svg>
